# xmcd
#
# Track frame offsets:
#	150
#	26454
#	51170
#	69704
#	87452
#	99483
#	114867
#	139926
#	161195
#	182381
#	216900
#	229242
#	254913
#	265899
#
# Disc length: 3974 seconds
#
# Revision: 8
# Processed by: cddbd v1.5.2PL0 Copyright (c) Steve Scherf et al.
# Submitted via: audiograbber 1.83.01
#
DISCID=cd0f840e
DTITLE=Kitaro - Silk Road Suite (20 Bit Digitally Remastered)
DYEAR=1996
DGENRE=Entspannung
TTITLE0=Tienshan
TTITLE1=Peace
TTITLE2=Journey
TTITLE3=Silk Road Theme
TTITLE4=Drifting Sand
TTITLE5=Fragrance of Nature
TTITLE6=Silk Road Fantasy
TTITLE7=Time
TTITLE8=Flying Celestial Nymphs
TTITLE9=Silk Road Theme: Andante, Everlasting Road
TTITLE10=Bell Tower
TTITLE11=Sunset
TTITLE12=Westbound
TTITLE13=Magical Sand Dance
EXTD=Track 10 und 11 sind auf der CD als einen Track zusammen gefast.\nDass hei
EXTD=st das Track 15 "Magical Sand Dance" in die alte Liste nicht Existiert. YE
EXTD=AR: 1996
EXTT0=
EXTT1=
EXTT2=
EXTT3=
EXTT4=
EXTT5=
EXTT6=
EXTT7=
EXTT8=
EXTT9=
EXTT10=
EXTT11=
EXTT12=
EXTT13=
PLAYORDER=
